<svg width="202" height="37" viewBox="0 0 202 37" fill="none" xmlns="http://www.w3.org/2000/svg">
<path d="M17.144 2.592C19.992 2.592 22.6 3.168 24.968 4.32C27.368 5.44 28.568 6.736 28.568 8.208C28.568 8.848 28.344 9.392 27.896 9.84C27.48 10.288 26.968 10.512 26.36 10.512C25.752 10.512 25.144 10.272 24.536 9.792C23.928 9.312 23.336 8.784 22.76 8.208C22.216 7.6 21.336 7.056 20.12 6.576C18.936 6.096 17.528 5.856 15.896 5.856C12.248 5.856 9.368 7.008 7.256 9.312C5.176 11.584 4.136 14.688 4.136 18.624C4.136 22.528 5.288 25.904 7.592 28.752C9.896 31.6 12.808 33.024 16.328 33.024C19.88 33.024 23.112 31.328 26.024 27.936C26.664 27.168 27.128 26.784 27.416 26.784C27.736 26.784 27.976 26.896 28.136 27.12C28.328 27.312 28.424 27.616 28.424 28.032C28.424 28.448 28.088 29.12 27.416 30.048C26.776 30.944 25.896 31.872 24.776 32.832C23.688 33.76 22.248 34.576 20.456 35.28C18.696 35.952 16.856 36.288 14.936 36.288C10.712 36.288 7.192 34.784 4.376 31.776C1.592 28.768 0.2 24.896 0.2 20.16C0.2 15.392 1.8 11.28 5 7.824C8.232 4.336 12.28 2.592 17.144 2.592ZM34.148 32.496C34.148 28.464 34.068 24.928 33.908 21.888C33.748 18.848 33.668 17.056 33.668 16.512C33.668 15.968 33.876 15.44 34.292 14.928C34.74 14.384 35.268 14.112 35.876 14.112C36.484 14.112 36.98 14.368 37.364 14.88C37.748 15.36 37.94 16.08 37.94 17.04C37.94 17.968 37.828 19.552 37.604 21.792C37.38 24 37.268 26.304 37.268 28.704C37.268 29.664 37.46 30.592 37.844 31.488C38.26 32.352 38.468 33.152 38.468 33.888C38.468 34.592 38.26 35.168 37.844 35.616C37.46 36.064 36.916 36.288 36.212 36.288C35.54 36.288 35.028 35.904 34.676 35.136C34.324 34.368 34.148 33.488 34.148 32.496ZM35.684 8.688C34.98 8.688 34.42 8.496 34.004 8.112C33.588 7.728 33.38 7.168 33.38 6.432C33.38 5.696 33.636 5.072 34.148 4.56C34.66 4.016 35.268 3.744 35.972 3.744C36.676 3.744 37.236 3.952 37.652 4.368C38.1 4.752 38.324 5.312 38.324 6.048C38.324 6.784 38.052 7.408 37.508 7.92C36.996 8.432 36.388 8.688 35.684 8.688ZM44.1421 19.248C43.4061 17.936 43.0381 16.96 43.0381 16.32C43.0381 15.648 43.2301 15.12 43.6141 14.736C43.9981 14.32 44.5581 14.112 45.2941 14.112C46.0301 14.112 46.7181 14.72 47.3581 15.936C47.9981 17.12 49.0861 19.616 50.6221 23.424C52.1581 27.2 53.2621 30.048 53.9341 31.968L54.3181 33.024C55.4381 32.32 56.6701 30.688 58.0141 28.128C59.3901 25.536 60.0781 23.2 60.0781 21.12C60.0781 20.416 59.8861 19.568 59.5021 18.576C59.1181 17.552 58.9261 16.768 58.9261 16.224C58.9261 15.68 59.1341 15.2 59.5501 14.784C59.9981 14.336 60.5901 14.112 61.3261 14.112C62.0621 14.112 62.6541 14.464 63.1021 15.168C63.5821 15.84 63.8221 17.008 63.8221 18.672C63.8221 20.304 63.2461 22.528 62.0941 25.344C60.9421 28.16 59.5181 30.64 57.8221 32.784C55.9661 35.12 54.3181 36.288 52.8781 36.288C51.8541 36.288 51.0221 35.44 50.3821 33.744C48.1741 27.632 46.0941 22.8 44.1421 19.248ZM68.4136 32.496C68.4136 28.464 68.3336 24.928 68.1736 21.888C68.0136 18.848 67.9336 17.056 67.9336 16.512C67.9336 15.968 68.1416 15.44 68.5576 14.928C69.0056 14.384 69.5336 14.112 70.1416 14.112C70.7496 14.112 71.2456 14.368 71.6296 14.88C72.0136 15.36 72.2056 16.08 72.2056 17.04C72.2056 17.968 72.0936 19.552 71.8696 21.792C71.6456 24 71.5336 26.304 71.5336 28.704C71.5336 29.664 71.7256 30.592 72.1096 31.488C72.5256 32.352 72.7336 33.152 72.7336 33.888C72.7336 34.592 72.5256 35.168 72.1096 35.616C71.7256 36.064 71.1816 36.288 70.4776 36.288C69.8056 36.288 69.2936 35.904 68.9416 35.136C68.5896 34.368 68.4136 33.488 68.4136 32.496ZM69.9496 8.688C69.2456 8.688 68.6856 8.496 68.2696 8.112C67.8536 7.728 67.6456 7.168 67.6456 6.432C67.6456 5.696 67.9016 5.072 68.4136 4.56C68.9256 4.016 69.5336 3.744 70.2376 3.744C70.9416 3.744 71.5016 3.952 71.9176 4.368C72.3656 4.752 72.5896 5.312 72.5896 6.048C72.5896 6.784 72.3176 7.408 71.7736 7.92C71.2616 8.432 70.6536 8.688 69.9496 8.688ZM79.5117 32.496C79.5117 20.048 79.4318 12.608 79.2718 10.176C78.9838 5.76 78.8398 3.184 78.8398 2.448C78.8398 1.712 79.0478 1.12 79.4638 0.671997C79.9118 0.223997 80.4398 -2.86102e-06 81.0478 -2.86102e-06C81.6558 -2.86102e-06 82.1518 0.223997 82.5358 0.671997C82.9198 1.12 83.1118 1.68 83.1118 2.352C83.1118 4.368 83.0318 7.104 82.8718 10.56C82.5518 18.688 82.3918 24.736 82.3918 28.704C82.3918 29.664 82.6958 30.592 83.3038 31.488C83.9438 32.352 84.2638 33.136 84.2638 33.84C84.2638 34.544 84.0238 35.136 83.5438 35.616C83.0638 36.064 82.5198 36.288 81.9118 36.288C80.3118 36.288 79.5117 35.024 79.5117 32.496ZM93.1363 36.288C91.9523 36.288 90.9923 36.048 90.2563 35.568C89.5203 35.088 89.1523 34.496 89.1523 33.792C89.1523 33.056 89.3603 32.48 89.7763 32.064C90.2243 31.616 90.6563 31.392 91.0723 31.392C91.5203 31.392 92.2403 31.584 93.2323 31.968C94.2243 32.352 95.2483 32.544 96.3043 32.544C97.3923 32.544 98.4803 32.272 99.5683 31.728C100.656 31.152 101.2 30.464 101.2 29.664C101.2 28.832 100.784 28.192 99.9523 27.744C99.1523 27.296 98.1763 26.944 97.0243 26.688C95.8723 26.4 94.7203 26.08 93.5683 25.728C92.4163 25.376 91.4243 24.848 90.5923 24.144C89.7923 23.408 89.3923 22.512 89.3923 21.456C89.3923 19.728 90.4963 18.08 92.7043 16.512C94.9123 14.912 97.3443 14.112 100 14.112C101.28 14.112 102.256 14.352 102.928 14.832C103.632 15.28 103.984 15.872 103.984 16.608C103.984 17.344 103.76 17.936 103.312 18.384C102.896 18.8 102.464 19.008 102.016 19.008C101.6 19.008 100.896 18.816 99.9043 18.432C98.9123 18.048 97.8723 17.856 96.7843 17.856C95.7283 17.856 94.8003 18.08 94.0003 18.528C93.2323 18.976 92.8483 19.52 92.8483 20.16C92.8483 20.8 93.4563 21.36 94.6723 21.84C95.9203 22.32 97.2803 22.704 98.7523 22.992C100.224 23.28 101.568 23.856 102.784 24.72C104.032 25.552 104.656 26.64 104.656 27.984C104.656 30.064 103.44 31.968 101.008 33.696C98.5763 35.424 95.9523 36.288 93.1363 36.288ZM114.629 5.184C114.629 5.28 114.549 6.752 114.389 9.6C114.261 12.416 114.197 15.536 114.197 18.96C114.197 22.384 114.261 25.616 114.389 28.656C114.549 31.696 114.629 33.472 114.629 33.984C114.629 34.496 114.405 35.008 113.957 35.52C113.541 36.032 112.997 36.288 112.325 36.288C111.653 36.288 111.093 36.032 110.645 35.52C110.229 35.008 110.021 34.496 110.021 33.984C110.021 33.472 110.085 31.696 110.213 28.656C110.373 25.616 110.453 22.384 110.453 18.96C110.453 15.536 110.373 12.416 110.213 9.6C110.085 6.752 110.021 5.28 110.021 5.184C110.021 4.512 110.229 3.92 110.645 3.408C111.093 2.864 111.653 2.592 112.325 2.592C112.997 2.592 113.541 2.864 113.957 3.408C114.405 3.92 114.629 4.512 114.629 5.184ZM124.364 22.272L124.652 33.984C124.652 34.656 124.46 35.216 124.076 35.664C123.692 36.08 123.196 36.288 122.588 36.288C121.98 36.288 121.452 36.08 121.004 35.664C120.588 35.216 120.38 34.656 120.38 33.984L120.716 24.48C120.716 24.48 120.604 21.808 120.38 16.464C120.38 15.792 120.588 15.232 121.004 14.784C121.452 14.336 121.98 14.112 122.588 14.112C123.196 14.112 123.692 14.336 124.076 14.784C124.46 15.2 124.652 15.728 124.652 16.368C124.652 17.008 124.636 17.488 124.604 17.808C126.396 15.344 128.46 14.112 130.796 14.112C134.156 14.112 136.316 16.368 137.276 20.88L139.1 29.136C139.292 29.872 139.676 30.672 140.252 31.536C140.86 32.368 141.164 33.12 141.164 33.792C141.164 35.456 140.364 36.288 138.764 36.288C137.164 36.288 136.124 35.024 135.644 32.496L133.82 22.464C133.212 19.264 131.564 17.664 128.876 17.664C127.5 17.664 126.428 18.128 125.66 19.056C124.892 19.984 124.46 21.056 124.364 22.272ZM151.211 36.288C149.195 36.288 147.499 35.488 146.123 33.888C144.747 32.288 144.059 30.448 144.059 28.368C144.059 26.256 144.475 24.288 145.307 22.464C146.139 20.64 147.195 19.136 148.475 17.952C149.755 16.768 151.131 15.84 152.603 15.168C154.107 14.464 155.643 14.112 157.211 14.112C158.811 14.112 160.283 14.704 161.627 15.888C161.595 13.488 161.483 10.864 161.291 8.016C161.099 5.136 161.003 3.328 161.003 2.592C161.003 1.856 161.195 1.248 161.579 0.767999C161.963 0.255998 162.459 -2.86102e-06 163.067 -2.86102e-06C163.675 -2.86102e-06 164.187 0.271997 164.603 0.815998C165.051 1.328 165.275 2.032 165.275 2.928C165.275 3.792 165.131 5.84 164.843 9.072C164.587 12.272 164.459 15.28 164.459 18.096C164.459 20.912 164.571 23.36 164.795 25.44C165.019 27.488 165.259 28.88 165.515 29.616C166.251 31.568 166.619 32.88 166.619 33.552C166.619 35.376 165.915 36.288 164.507 36.288C162.811 36.288 161.819 34.48 161.531 30.864C160.251 32.56 158.715 33.888 156.923 34.848C155.131 35.808 153.227 36.288 151.211 36.288ZM149.339 20.016C147.931 21.424 147.227 23.152 147.227 25.2C147.227 27.248 147.931 28.992 149.339 30.432C150.779 31.84 152.507 32.544 154.523 32.544C156.571 32.544 158.283 31.84 159.659 30.432C161.035 28.992 161.723 27.184 161.723 25.008C161.723 22.832 161.099 21.104 159.851 19.824C158.603 18.544 156.891 17.904 154.715 17.904C152.571 17.904 150.779 18.608 149.339 20.016ZM172.664 32.496C172.664 28.464 172.584 24.928 172.424 21.888C172.264 18.848 172.184 17.056 172.184 16.512C172.184 15.968 172.392 15.44 172.808 14.928C173.256 14.384 173.784 14.112 174.392 14.112C175 14.112 175.496 14.368 175.88 14.88C176.264 15.36 176.456 16.08 176.456 17.04C176.456 17.968 176.344 19.552 176.12 21.792C175.896 24 175.784 26.304 175.784 28.704C175.784 29.664 175.976 30.592 176.36 31.488C176.776 32.352 176.984 33.152 176.984 33.888C176.984 34.592 176.776 35.168 176.36 35.616C175.976 36.064 175.432 36.288 174.728 36.288C174.056 36.288 173.544 35.904 173.192 35.136C172.84 34.368 172.664 33.488 172.664 32.496ZM174.2 8.688C173.496 8.688 172.936 8.496 172.52 8.112C172.104 7.728 171.896 7.168 171.896 6.432C171.896 5.696 172.152 5.072 172.664 4.56C173.176 4.016 173.784 3.744 174.488 3.744C175.192 3.744 175.752 3.952 176.168 4.368C176.616 4.752 176.84 5.312 176.84 6.048C176.84 6.784 176.568 7.408 176.024 7.92C175.512 8.432 174.904 8.688 174.2 8.688ZM198.93 29.568C199.154 30.144 199.618 30.928 200.322 31.92C201.058 32.88 201.426 33.664 201.426 34.272C201.426 34.88 201.266 35.376 200.946 35.76C200.626 36.112 200.194 36.288 199.65 36.288C198.338 36.288 197.17 34.928 196.146 32.208L195.762 31.152C194.13 34.576 191.682 36.288 188.418 36.288C186.786 36.288 185.426 35.776 184.338 34.752C183.282 33.696 182.754 32.384 182.754 30.816C182.754 28.384 183.586 26.288 185.25 24.528C186.914 22.768 189.09 21.824 191.778 21.696C191.138 20.576 190.418 19.744 189.618 19.2C188.85 18.624 188.146 18.288 187.506 18.192C186.866 18.096 186.258 18.048 185.682 18.048C185.138 18.016 184.706 17.888 184.386 17.664C184.066 17.44 183.906 17.008 183.906 16.368C183.906 15.696 184.162 15.152 184.674 14.736C185.218 14.32 185.858 14.112 186.594 14.112C188.674 14.112 190.722 15.152 192.738 17.232C194.754 19.312 196.514 22.576 198.018 27.024L198.93 29.568ZM190.578 24.24C189.426 24.24 188.386 24.624 187.458 25.392C186.562 26.16 186.114 27.152 186.114 28.368C186.114 29.584 186.514 30.608 187.314 31.44C188.146 32.24 189.138 32.64 190.29 32.64C191.442 32.64 192.434 32.24 193.266 31.44C194.098 30.608 194.514 29.632 194.514 28.512C194.514 27.712 194.37 26.976 194.082 26.304C193.794 25.6 193.618 25.168 193.554 25.008C192.722 24.496 191.73 24.24 190.578 24.24Z" fill="black"/>
</svg>
